<svg width="492" height="121" viewBox="0 0 492 121" fill="none" xmlns="http://www.w3.org/2000/svg">
<path fill-rule="evenodd" clip-rule="evenodd" d="M43.6364 0C19.5367 0 0 19.5367 0 43.6364V76.3636C0 100.463 19.5367 120 43.6364 120H76.3636C100.463 120 120 100.463 120 76.3636V43.6364C120 19.5367 100.463 0 76.3636 0H43.6364ZM61.1512 76.8262C60.4495 76.7491 59.7478 76.6142 59.0461 76.4215L92.7273 40.7453C91.0608 38.6637 89.1311 36.7941 86.9383 35.1365C84.7455 33.4404 82.3773 32.0141 79.8337 30.8577C77.3339 29.7013 74.6807 28.8146 71.8739 28.1979C69.0672 27.5811 66.1946 27.2727 63.2563 27.2727C58.3006 27.2727 53.63 28.063 49.2444 29.6434C44.9027 31.2239 41.0872 33.4404 37.7981 36.293C34.5528 39.1455 31.9872 42.5956 30.1014 46.6431C28.2156 50.6907 27.2727 55.1622 27.2727 60.0578C27.2727 64.8378 28.2156 69.2323 30.1014 73.2412C31.9872 77.2117 34.5528 80.6425 37.7981 83.5336C41.0872 86.4247 44.9027 88.6797 49.2444 90.2987C53.63 91.9178 58.3006 92.7273 63.2563 92.7273C66.1946 92.7273 69.0452 92.4189 71.8081 91.8021C74.6149 91.2239 77.2682 90.3566 79.7679 89.2001C82.3116 88.0437 84.6578 86.6367 86.8068 84.9791C88.9995 83.3216 90.9292 81.452 92.5957 79.3704L79.439 67.7482C78.7373 69.1359 77.8164 70.408 76.6761 71.5644C75.5797 72.6823 74.3079 73.646 72.8607 74.4555C71.4573 75.2265 69.9443 75.824 68.3216 76.248C66.6989 76.672 65.0105 76.884 63.2563 76.884C62.5546 76.884 61.8529 76.8648 61.1512 76.8262ZM65.7561 43.3473C66.5893 43.4243 67.4226 43.5978 68.2558 43.8677L47.3367 68.2686C46.9858 67.7289 46.7008 67.1121 46.4815 66.4182C46.2622 65.7244 46.0649 65.0112 45.8894 64.2788C45.7579 63.5079 45.6482 62.7562 45.5605 62.0238C45.5167 61.2914 45.4947 60.636 45.4947 60.0578C45.4947 57.4751 45.9552 55.1622 46.8762 53.1192C47.7972 51.0376 49.047 49.2644 50.6259 47.7996C52.2485 46.3347 54.1343 45.2168 56.2832 44.4459C58.476 43.6364 60.8004 43.2316 63.2563 43.2316C64.1334 43.2316 64.9667 43.2702 65.7561 43.3473Z" fill="#E21C40"/>
<path d="M180.85 80.1692C181.487 80.3683 182.124 80.5077 182.762 80.5873C183.399 80.6272 184.036 80.6471 184.673 80.6471C186.266 80.6471 187.799 80.4281 189.272 79.99C190.746 79.552 192.119 78.9348 193.394 78.1384C194.708 77.3021 195.863 76.3066 196.858 75.1518C197.893 73.9572 198.73 72.6431 199.367 71.2095L211.313 83.2155C209.8 85.3658 208.048 87.2971 206.057 89.0094C204.106 90.7217 201.975 92.1752 199.666 93.3698C197.396 94.5644 194.987 95.4604 192.438 96.0577C189.929 96.6949 187.341 97.0134 184.673 97.0134C180.173 97.0134 175.932 96.1772 171.95 94.5047C168.008 92.8322 164.544 90.5027 161.557 87.5162C158.61 84.5296 156.281 80.9855 154.568 76.884C152.856 72.7426 152 68.2031 152 63.2653C152 58.208 152.856 53.5888 154.568 49.4076C156.281 45.2265 158.61 41.6625 161.557 38.7158C164.544 35.769 168.008 33.4793 171.95 31.8467C175.932 30.214 180.173 29.3977 184.673 29.3977C187.341 29.3977 189.949 29.7163 192.498 30.3534C195.046 30.9905 197.455 31.9064 199.725 33.101C202.035 34.2957 204.185 35.769 206.176 37.5211C208.167 39.2334 209.919 41.1647 211.433 43.3151L180.85 80.1692ZM189.213 46.5406C188.456 46.2618 187.699 46.0826 186.943 46.003C186.226 45.9233 185.469 45.8835 184.673 45.8835C182.443 45.8835 180.333 46.3016 178.341 47.1379C176.39 47.9343 174.678 49.0891 173.205 50.6023C171.771 52.1155 170.636 53.9472 169.8 56.0975C168.964 58.208 168.546 60.5973 168.546 63.2653C168.546 63.8626 168.565 64.5396 168.605 65.2962C168.685 66.0527 168.784 66.8292 168.904 67.6257C169.063 68.3823 169.242 69.1189 169.442 69.8357C169.641 70.5525 169.899 71.1896 170.218 71.7471L189.213 46.5406Z" fill="white"/>
<path d="M281.139 95.8188H277.197L270.865 87.0383C269.312 88.432 267.66 89.7461 265.907 90.9806C264.195 92.1752 262.383 93.2304 260.472 94.1463C258.56 95.0224 256.589 95.7192 254.558 96.2369C252.567 96.7546 250.537 97.0134 248.466 97.0134C243.966 97.0134 239.725 96.2568 235.743 94.7436C231.801 93.2304 228.336 91.0403 225.35 88.1732C222.403 85.2663 220.074 81.7222 218.361 77.541C216.649 73.3599 215.793 68.6013 215.793 63.2653C215.793 58.2877 216.649 53.7282 218.361 49.5868C220.074 45.4057 222.403 41.8218 225.35 38.8352C228.336 35.8487 231.801 33.5391 235.743 31.9064C239.725 30.2339 243.966 29.3977 248.466 29.3977C250.537 29.3977 252.587 29.6565 254.618 30.1742C256.649 30.6919 258.62 31.4086 260.532 32.3245C262.443 33.2404 264.255 34.3156 265.967 35.55C267.719 36.7845 269.352 38.1184 270.865 39.552L277.197 31.9661H281.139V95.8188ZM264.713 63.2653C264.713 61.0353 264.275 58.885 263.399 56.8143C262.562 54.7038 261.408 52.8521 259.934 51.2593C258.461 49.6267 256.729 48.3325 254.738 47.3768C252.786 46.3813 250.696 45.8835 248.466 45.8835C246.236 45.8835 244.125 46.2618 242.134 47.0184C240.183 47.775 238.471 48.89 236.998 50.3633C235.564 51.8367 234.429 53.6685 233.593 55.8586C232.757 58.0089 232.338 60.4778 232.338 63.2653C232.338 66.0527 232.757 68.5415 233.593 70.7317C234.429 72.882 235.564 74.6939 236.998 76.1672C238.471 77.6406 240.183 78.7556 242.134 79.5122C244.125 80.2688 246.236 80.6471 248.466 80.6471C250.696 80.6471 252.786 80.1692 254.738 79.2135C256.729 78.218 258.461 76.9238 259.934 75.331C261.408 73.6983 262.562 71.8467 263.399 69.776C264.275 67.6655 264.713 65.4953 264.713 63.2653Z" fill="white"/>
<path d="M328.745 95.8188H291.472V79.5719H328.745C329.86 79.5719 330.815 79.1737 331.612 78.3773C332.408 77.5809 332.806 76.6252 332.806 75.5102C332.806 74.3554 332.408 73.5988 331.612 73.2404C330.815 72.882 329.86 72.7028 328.745 72.7028H311.781C308.954 72.7028 306.306 72.1652 303.837 71.0901C301.368 70.0149 299.218 68.5615 297.386 66.7297C295.554 64.8581 294.101 62.6879 293.025 60.219C291.99 57.7501 291.472 55.102 291.472 52.2747C291.472 49.4475 291.99 46.7994 293.025 44.3305C294.101 41.8616 295.554 39.7113 297.386 37.8795C299.218 36.0478 301.368 34.6142 303.837 33.5789C306.306 32.5037 308.954 31.9661 311.781 31.9661H344.812V48.213H311.781C310.666 48.213 309.71 48.6112 308.914 49.4076C308.117 50.2041 307.719 51.1598 307.719 52.2747C307.719 53.4295 308.117 54.4251 308.914 55.2613C309.71 56.0577 310.666 56.4559 311.781 56.4559H328.745C331.532 56.4559 334.16 56.9338 336.629 57.8895C339.098 58.8054 341.248 60.0995 343.08 61.772C344.912 63.4445 346.365 65.4554 347.441 67.8049C348.516 70.1543 349.053 72.7227 349.053 75.5102C349.053 78.3375 348.516 80.9855 347.441 83.4544C346.365 85.8835 344.912 88.0338 343.08 89.9054C341.248 91.7372 339.098 93.1906 336.629 94.2658C334.16 95.3011 331.532 95.8188 328.745 95.8188Z" fill="white"/>
<path d="M377.007 14.4649C377.007 15.9781 376.709 17.3917 376.111 18.7058C375.554 20.0199 374.778 21.1747 373.782 22.1702C372.786 23.1259 371.612 23.9024 370.258 24.4997C368.944 25.0572 367.53 25.336 366.017 25.336C364.504 25.336 363.07 25.0572 361.716 24.4997C360.402 23.9024 359.247 23.1259 358.252 22.1702C357.296 21.1747 356.52 20.0199 355.922 18.7058C355.365 17.3917 355.086 15.9781 355.086 14.4649C355.086 12.9915 355.365 11.5978 355.922 10.2837C356.52 8.9298 357.296 7.77499 358.252 6.8193C359.247 5.82378 360.402 5.04727 361.716 4.48978C363.07 3.89247 364.504 3.59381 366.017 3.59381C367.53 3.59381 368.944 3.89247 370.258 4.48978C371.612 5.04727 372.786 5.82378 373.782 6.8193C374.778 7.77499 375.554 8.9298 376.111 10.2837C376.709 11.5978 377.007 12.9915 377.007 14.4649ZM374.2 95.8188H357.774V31.8467H374.2V95.8188Z" fill="white"/>
<path d="M407.411 95.8188H391.104V48.0936H383.16V31.8467H391.104V28.8004C391.104 24.8581 391.841 21.1548 393.314 17.6904C394.827 14.226 396.878 11.2195 399.466 8.67096C402.095 6.08261 405.141 4.05175 408.605 2.57838C412.07 1.06519 415.773 0.308594 419.715 0.308594H431.96V16.5555H419.715C417.963 16.5555 416.331 16.874 414.817 17.5112C413.344 18.1085 412.05 18.9646 410.935 20.0796C409.86 21.1548 409.003 22.449 408.366 23.9622C407.729 25.4355 407.411 27.0483 407.411 28.8004V31.8467H427.421V48.0936H407.411V95.8188Z" fill="white"/>
<path d="M450.118 120.189V103.763L459.198 103.883C460.79 103.883 462.324 103.624 463.797 103.106C465.27 102.588 466.624 101.872 467.859 100.956C469.133 100.04 470.248 98.9447 471.204 97.6705C472.159 96.436 472.936 95.0821 473.533 93.6087C471.741 94.3653 469.909 95.1219 468.038 95.8785C466.206 96.6351 464.354 97.0134 462.483 97.0134C458.541 97.0134 454.837 96.3166 451.373 94.9228C447.908 93.5291 444.862 91.558 442.234 89.0094C439.646 86.4211 437.595 83.2952 436.082 79.6316C434.608 75.9283 433.872 71.7869 433.872 67.2076V31.8467H450.118V67.2076C450.118 69.4773 450.437 71.4684 451.074 73.1807C451.751 74.8531 452.647 76.2668 453.762 77.4216C454.877 78.5366 456.171 79.3728 457.645 79.9303C459.158 80.4878 460.771 80.7665 462.483 80.7665C464.155 80.7665 465.728 80.3882 467.202 79.6316C468.715 78.8352 470.029 77.7999 471.144 76.5256C472.259 75.2514 473.135 73.8178 473.772 72.225C474.409 70.5923 474.728 68.9198 474.728 67.2076V31.8467H491.154V87.7551C491.114 92.2548 490.238 96.4758 488.526 100.418C486.813 104.36 484.464 107.805 481.477 110.752C478.531 113.698 475.086 116.028 471.144 117.74C467.202 119.452 462.981 120.309 458.481 120.309L450.118 120.189Z" fill="white"/>
</svg>
