<svg width="250" height="250" viewBox="0 0 250 250" fill="none" xmlns="http://www.w3.org/2000/svg">
<path fill-rule="evenodd" clip-rule="evenodd" d="M90.9091 0C40.7014 0 0 40.7014 0 90.9091V159.091C0 209.299 40.7014 250 90.9091 250H159.091C209.299 250 250 209.299 250 159.091V90.9091C250 40.7014 209.299 0 159.091 0H90.9091ZM127.398 160.055C125.936 159.894 124.475 159.613 123.013 159.211L193.182 84.886C189.71 80.5493 185.69 76.6544 181.122 73.2011C176.553 69.6675 171.619 66.6961 166.32 64.2869C161.112 61.8776 155.585 60.0305 149.737 58.7456C143.89 57.4607 137.905 56.8182 131.784 56.8182C121.46 56.8182 111.729 58.4645 102.592 61.7571C93.5473 65.0498 85.5984 69.6675 78.746 75.6103C71.9849 81.5532 66.64 88.7408 62.7113 97.1731C58.7825 105.606 56.8182 114.921 56.8182 125.12C56.8182 135.079 58.7825 144.234 62.7113 152.586C66.64 160.858 71.9849 168.005 78.746 174.028C85.5984 180.051 93.5473 184.749 102.592 188.122C111.729 191.495 121.46 193.182 131.784 193.182C137.905 193.182 143.844 192.539 149.6 191.254C155.448 190.05 160.975 188.243 166.183 185.834C171.482 183.424 176.37 180.493 180.847 177.04C185.416 173.587 189.436 169.692 192.908 165.355L165.498 141.142C164.036 144.033 162.117 146.683 159.742 149.093C157.458 151.421 154.808 153.429 151.793 155.116C148.869 156.722 145.717 157.967 142.337 158.85C138.956 159.733 135.439 160.175 131.784 160.175C130.322 160.175 128.86 160.135 127.398 160.055ZM136.992 90.3068C138.728 90.4674 140.464 90.8288 142.2 91.3909L98.6181 142.226C97.8872 141.102 97.2933 139.817 96.8364 138.371C96.3796 136.926 95.9685 135.44 95.603 133.914C95.3289 132.308 95.1005 130.742 94.9178 129.216C94.8264 127.69 94.7807 126.325 94.7807 125.12C94.7807 119.74 95.7401 114.921 97.6587 110.665C99.5774 106.328 102.181 102.634 105.471 99.5824C108.851 96.5307 112.78 94.2017 117.257 92.5956C121.825 90.9091 126.667 90.0658 131.784 90.0658C133.611 90.0658 135.347 90.1462 136.992 90.3068Z" fill="#E21C40"/>
</svg>
